<svg xmlns="http://www.w3.org/2000/svg" viewBox="0 0 192 192">
  <path fill="#ffffffff" d="M141.54 89.35a34.7 34.7 0 0 0-9.62-23.77c-7.13-7.7-17.65-11.75-30.83-11.75-14.82 0-26.6 5-34.98 14.83-6.9 8.1-10.4 18.9-10.4 32.1h-.03c.12 11.4 3.75 20.88 10.8 28.2 7.7 8 18.78 12.06 32.9 12.06 18.27 0 31.4-8.8 36.32-24.3l15.9 4.67C145.43 145.58 125.96 158 100.1 158c-20.7 0-37.13-6.1-48.86-18.15-11.53-11.83-17.38-27.5-17.38-46.57 0-20.2 6.55-37.02 19.46-49.98C67.1 29.5 83.54 22 101.97 22c19.33 0 36.06 7.22 48.33 20.86 12.25 13.63 18.46 32.5 18.46 56.1v4.6c0 6.64-1.57 11.75-4.66 15.2-2.7 3-6.8 4.52-12.18 4.52-6.53 0-10.74-2.2-12.5-6.54-1.07-2.65-1.62-6.13-1.62-10.33v-30.8h-16.7v31.42c0 9.73 2.5 17.2 7.42 22.2 4.64 4.7 11.4 7.08 20.1 7.08 10.38 0 18.33-3.6 23.64-10.7 4.14-5.54 6.24-13.4 6.24-23.36v-6.38c0-28.7-7.8-52.06-23.17-69.45-15.03-17-36.13-25.6-62.72-25.6-23.4 0-43.5 8.95-59.77 26.6-15.68 17-23.6 38.9-23.6 65.1 0 25.13 7.8 46.2 23.16 62.63C49.9 166.42 69.8 175 97.9 175c22.64 0 42.12-5.73 57.9-17.03l-9.13-13.8c-13.1 9.13-29.35 13.75-48.3 13.75-21.2 0-36.43-6.54-47.9-20.57-11.3-13.82-17.04-32.93-17.04-56.77 0-22.6 5.3-40.4 15.75-52.92 10.23-12.25 24.12-18.45 41.3-18.45 10.65 0 19.3 3.3 25.68 9.8 6.55 6.67 9.87 15.9 9.87 27.44v30.2c0 2.27.16 3.96.48 5.03.52 1.76 1.7 2.64 3.52 2.64 2.1 0 3.38-.85 3.8-2.52.28-1.12.42-3.14.42-6v-6.42zm-26.6-21.78v25.2c-.3-1.47-.63-2.65-1-3.52-1.32-3.16-4.52-4.75-9.5-4.75-8.8 0-15.35 2.72-19.46 8.1-3.64 4.76-5.48 10.9-5.48 18.26 0 7.02 1.63 12.37 4.86 15.9 3.37 3.7 8.04 5.56 13.86 5.56 5.5 0 9.6-1.74 12.15-5.18 1.95-2.62 2.93-6.7 2.93-12.13v-27.45h11.64z"></path>
</svg>